%TF.GenerationSoftware,KiCad,Pcbnew,9.0.5*%
%TF.CreationDate,2025-11-28T10:22:16-08:00*%
%TF.ProjectId,project3_tiny_solar_power_supply,70726f6a-6563-4743-935f-74696e795f73,rev?*%
%TF.SameCoordinates,Original*%
%TF.FileFunction,Legend,Top*%
%TF.FilePolarity,Positive*%
%FSLAX46Y46*%
G04 Gerber Fmt 4.6, Leading zero omitted, Abs format (unit mm)*
G04 Created by KiCad (PCBNEW 9.0.5) date 2025-11-28 10:22:16*
%MOMM*%
%LPD*%
G01*
G04 APERTURE LIST*
%ADD10C,0.100000*%
%ADD11C,0.120000*%
%ADD12C,0.152400*%
G04 APERTURE END LIST*
D10*
X128944080Y-97607366D02*
X129705985Y-97607366D01*
X129325032Y-97988319D02*
X129325032Y-97226414D01*
X137144080Y-97607366D02*
X137905985Y-97607366D01*
X137525032Y-97988319D02*
X137525032Y-97226414D01*
X136446863Y-107578295D02*
X136180196Y-107197342D01*
X135989720Y-107578295D02*
X135989720Y-106778295D01*
X135989720Y-106778295D02*
X136294482Y-106778295D01*
X136294482Y-106778295D02*
X136370672Y-106816390D01*
X136370672Y-106816390D02*
X136408767Y-106854485D01*
X136408767Y-106854485D02*
X136446863Y-106930676D01*
X136446863Y-106930676D02*
X136446863Y-107044961D01*
X136446863Y-107044961D02*
X136408767Y-107121152D01*
X136408767Y-107121152D02*
X136370672Y-107159247D01*
X136370672Y-107159247D02*
X136294482Y-107197342D01*
X136294482Y-107197342D02*
X135989720Y-107197342D01*
X136713529Y-106778295D02*
X137208767Y-106778295D01*
X137208767Y-106778295D02*
X136942101Y-107083057D01*
X136942101Y-107083057D02*
X137056386Y-107083057D01*
X137056386Y-107083057D02*
X137132577Y-107121152D01*
X137132577Y-107121152D02*
X137170672Y-107159247D01*
X137170672Y-107159247D02*
X137208767Y-107235438D01*
X137208767Y-107235438D02*
X137208767Y-107425914D01*
X137208767Y-107425914D02*
X137170672Y-107502104D01*
X137170672Y-107502104D02*
X137132577Y-107540200D01*
X137132577Y-107540200D02*
X137056386Y-107578295D01*
X137056386Y-107578295D02*
X136827815Y-107578295D01*
X136827815Y-107578295D02*
X136751624Y-107540200D01*
X136751624Y-107540200D02*
X136713529Y-107502104D01*
X132004005Y-109129485D02*
X131927815Y-109091390D01*
X131927815Y-109091390D02*
X131851624Y-109015200D01*
X131851624Y-109015200D02*
X131737338Y-108900914D01*
X131737338Y-108900914D02*
X131661148Y-108862819D01*
X131661148Y-108862819D02*
X131584957Y-108862819D01*
X131623053Y-109053295D02*
X131546862Y-109015200D01*
X131546862Y-109015200D02*
X131470672Y-108939009D01*
X131470672Y-108939009D02*
X131432576Y-108786628D01*
X131432576Y-108786628D02*
X131432576Y-108519961D01*
X131432576Y-108519961D02*
X131470672Y-108367580D01*
X131470672Y-108367580D02*
X131546862Y-108291390D01*
X131546862Y-108291390D02*
X131623053Y-108253295D01*
X131623053Y-108253295D02*
X131775434Y-108253295D01*
X131775434Y-108253295D02*
X131851624Y-108291390D01*
X131851624Y-108291390D02*
X131927815Y-108367580D01*
X131927815Y-108367580D02*
X131965910Y-108519961D01*
X131965910Y-108519961D02*
X131965910Y-108786628D01*
X131965910Y-108786628D02*
X131927815Y-108939009D01*
X131927815Y-108939009D02*
X131851624Y-109015200D01*
X131851624Y-109015200D02*
X131775434Y-109053295D01*
X131775434Y-109053295D02*
X131623053Y-109053295D01*
X132727814Y-109053295D02*
X132270671Y-109053295D01*
X132499243Y-109053295D02*
X132499243Y-108253295D01*
X132499243Y-108253295D02*
X132423052Y-108367580D01*
X132423052Y-108367580D02*
X132346862Y-108443771D01*
X132346862Y-108443771D02*
X132270671Y-108481866D01*
X127673529Y-98180795D02*
X127673529Y-98752223D01*
X127673529Y-98752223D02*
X127635434Y-98866509D01*
X127635434Y-98866509D02*
X127559243Y-98942700D01*
X127559243Y-98942700D02*
X127444958Y-98980795D01*
X127444958Y-98980795D02*
X127368767Y-98980795D01*
X128397339Y-98447461D02*
X128397339Y-98980795D01*
X128206863Y-98142700D02*
X128016386Y-98714128D01*
X128016386Y-98714128D02*
X128511625Y-98714128D01*
X133473529Y-106680795D02*
X133473529Y-107252223D01*
X133473529Y-107252223D02*
X133435434Y-107366509D01*
X133435434Y-107366509D02*
X133359243Y-107442700D01*
X133359243Y-107442700D02*
X133244958Y-107480795D01*
X133244958Y-107480795D02*
X133168767Y-107480795D01*
X133778291Y-106680795D02*
X134273529Y-106680795D01*
X134273529Y-106680795D02*
X134006863Y-106985557D01*
X134006863Y-106985557D02*
X134121148Y-106985557D01*
X134121148Y-106985557D02*
X134197339Y-107023652D01*
X134197339Y-107023652D02*
X134235434Y-107061747D01*
X134235434Y-107061747D02*
X134273529Y-107137938D01*
X134273529Y-107137938D02*
X134273529Y-107328414D01*
X134273529Y-107328414D02*
X134235434Y-107404604D01*
X134235434Y-107404604D02*
X134197339Y-107442700D01*
X134197339Y-107442700D02*
X134121148Y-107480795D01*
X134121148Y-107480795D02*
X133892577Y-107480795D01*
X133892577Y-107480795D02*
X133816386Y-107442700D01*
X133816386Y-107442700D02*
X133778291Y-107404604D01*
X145891863Y-107578295D02*
X145625196Y-107197342D01*
X145434720Y-107578295D02*
X145434720Y-106778295D01*
X145434720Y-106778295D02*
X145739482Y-106778295D01*
X145739482Y-106778295D02*
X145815672Y-106816390D01*
X145815672Y-106816390D02*
X145853767Y-106854485D01*
X145853767Y-106854485D02*
X145891863Y-106930676D01*
X145891863Y-106930676D02*
X145891863Y-107044961D01*
X145891863Y-107044961D02*
X145853767Y-107121152D01*
X145853767Y-107121152D02*
X145815672Y-107159247D01*
X145815672Y-107159247D02*
X145739482Y-107197342D01*
X145739482Y-107197342D02*
X145434720Y-107197342D01*
X146653767Y-107578295D02*
X146196624Y-107578295D01*
X146425196Y-107578295D02*
X146425196Y-106778295D01*
X146425196Y-106778295D02*
X146349005Y-106892580D01*
X146349005Y-106892580D02*
X146272815Y-106968771D01*
X146272815Y-106968771D02*
X146196624Y-107006866D01*
X156733529Y-101280795D02*
X156733529Y-101852223D01*
X156733529Y-101852223D02*
X156695434Y-101966509D01*
X156695434Y-101966509D02*
X156619243Y-102042700D01*
X156619243Y-102042700D02*
X156504958Y-102080795D01*
X156504958Y-102080795D02*
X156428767Y-102080795D01*
X157533529Y-102080795D02*
X157076386Y-102080795D01*
X157304958Y-102080795D02*
X157304958Y-101280795D01*
X157304958Y-101280795D02*
X157228767Y-101395080D01*
X157228767Y-101395080D02*
X157152577Y-101471271D01*
X157152577Y-101471271D02*
X157076386Y-101509366D01*
X145634363Y-112917104D02*
X145596267Y-112955200D01*
X145596267Y-112955200D02*
X145481982Y-112993295D01*
X145481982Y-112993295D02*
X145405791Y-112993295D01*
X145405791Y-112993295D02*
X145291505Y-112955200D01*
X145291505Y-112955200D02*
X145215315Y-112879009D01*
X145215315Y-112879009D02*
X145177220Y-112802819D01*
X145177220Y-112802819D02*
X145139124Y-112650438D01*
X145139124Y-112650438D02*
X145139124Y-112536152D01*
X145139124Y-112536152D02*
X145177220Y-112383771D01*
X145177220Y-112383771D02*
X145215315Y-112307580D01*
X145215315Y-112307580D02*
X145291505Y-112231390D01*
X145291505Y-112231390D02*
X145405791Y-112193295D01*
X145405791Y-112193295D02*
X145481982Y-112193295D01*
X145481982Y-112193295D02*
X145596267Y-112231390D01*
X145596267Y-112231390D02*
X145634363Y-112269485D01*
X145939124Y-112269485D02*
X145977220Y-112231390D01*
X145977220Y-112231390D02*
X146053410Y-112193295D01*
X146053410Y-112193295D02*
X146243886Y-112193295D01*
X146243886Y-112193295D02*
X146320077Y-112231390D01*
X146320077Y-112231390D02*
X146358172Y-112269485D01*
X146358172Y-112269485D02*
X146396267Y-112345676D01*
X146396267Y-112345676D02*
X146396267Y-112421866D01*
X146396267Y-112421866D02*
X146358172Y-112536152D01*
X146358172Y-112536152D02*
X145901029Y-112993295D01*
X145901029Y-112993295D02*
X146396267Y-112993295D01*
X150474363Y-107517104D02*
X150436267Y-107555200D01*
X150436267Y-107555200D02*
X150321982Y-107593295D01*
X150321982Y-107593295D02*
X150245791Y-107593295D01*
X150245791Y-107593295D02*
X150131505Y-107555200D01*
X150131505Y-107555200D02*
X150055315Y-107479009D01*
X150055315Y-107479009D02*
X150017220Y-107402819D01*
X150017220Y-107402819D02*
X149979124Y-107250438D01*
X149979124Y-107250438D02*
X149979124Y-107136152D01*
X149979124Y-107136152D02*
X150017220Y-106983771D01*
X150017220Y-106983771D02*
X150055315Y-106907580D01*
X150055315Y-106907580D02*
X150131505Y-106831390D01*
X150131505Y-106831390D02*
X150245791Y-106793295D01*
X150245791Y-106793295D02*
X150321982Y-106793295D01*
X150321982Y-106793295D02*
X150436267Y-106831390D01*
X150436267Y-106831390D02*
X150474363Y-106869485D01*
X151236267Y-107593295D02*
X150779124Y-107593295D01*
X151007696Y-107593295D02*
X151007696Y-106793295D01*
X151007696Y-106793295D02*
X150931505Y-106907580D01*
X150931505Y-106907580D02*
X150855315Y-106983771D01*
X150855315Y-106983771D02*
X150779124Y-107021866D01*
X151690300Y-101707166D02*
X151690300Y-101326214D01*
X151690300Y-101326214D02*
X152490300Y-101326214D01*
X151690300Y-102392880D02*
X151690300Y-101935737D01*
X151690300Y-102164309D02*
X152490300Y-102164309D01*
X152490300Y-102164309D02*
X152376015Y-102088118D01*
X152376015Y-102088118D02*
X152299824Y-102011928D01*
X152299824Y-102011928D02*
X152261729Y-101935737D01*
X140608991Y-98179967D02*
X140570896Y-98141871D01*
X140570896Y-98141871D02*
X140532800Y-98027586D01*
X140532800Y-98027586D02*
X140532800Y-97951395D01*
X140532800Y-97951395D02*
X140570896Y-97837109D01*
X140570896Y-97837109D02*
X140647086Y-97760919D01*
X140647086Y-97760919D02*
X140723276Y-97722824D01*
X140723276Y-97722824D02*
X140875657Y-97684728D01*
X140875657Y-97684728D02*
X140989943Y-97684728D01*
X140989943Y-97684728D02*
X141142324Y-97722824D01*
X141142324Y-97722824D02*
X141218515Y-97760919D01*
X141218515Y-97760919D02*
X141294705Y-97837109D01*
X141294705Y-97837109D02*
X141332800Y-97951395D01*
X141332800Y-97951395D02*
X141332800Y-98027586D01*
X141332800Y-98027586D02*
X141294705Y-98141871D01*
X141294705Y-98141871D02*
X141256610Y-98179967D01*
X140532800Y-98979967D02*
X140913753Y-98713300D01*
X140532800Y-98522824D02*
X141332800Y-98522824D01*
X141332800Y-98522824D02*
X141332800Y-98827586D01*
X141332800Y-98827586D02*
X141294705Y-98903776D01*
X141294705Y-98903776D02*
X141256610Y-98941871D01*
X141256610Y-98941871D02*
X141180419Y-98979967D01*
X141180419Y-98979967D02*
X141066134Y-98979967D01*
X141066134Y-98979967D02*
X140989943Y-98941871D01*
X140989943Y-98941871D02*
X140951848Y-98903776D01*
X140951848Y-98903776D02*
X140913753Y-98827586D01*
X140913753Y-98827586D02*
X140913753Y-98522824D01*
X140532800Y-99741871D02*
X140532800Y-99284728D01*
X140532800Y-99513300D02*
X141332800Y-99513300D01*
X141332800Y-99513300D02*
X141218515Y-99437109D01*
X141218515Y-99437109D02*
X141142324Y-99360919D01*
X141142324Y-99360919D02*
X141104229Y-99284728D01*
X151906863Y-112299604D02*
X151868767Y-112337700D01*
X151868767Y-112337700D02*
X151754482Y-112375795D01*
X151754482Y-112375795D02*
X151678291Y-112375795D01*
X151678291Y-112375795D02*
X151564005Y-112337700D01*
X151564005Y-112337700D02*
X151487815Y-112261509D01*
X151487815Y-112261509D02*
X151449720Y-112185319D01*
X151449720Y-112185319D02*
X151411624Y-112032938D01*
X151411624Y-112032938D02*
X151411624Y-111918652D01*
X151411624Y-111918652D02*
X151449720Y-111766271D01*
X151449720Y-111766271D02*
X151487815Y-111690080D01*
X151487815Y-111690080D02*
X151564005Y-111613890D01*
X151564005Y-111613890D02*
X151678291Y-111575795D01*
X151678291Y-111575795D02*
X151754482Y-111575795D01*
X151754482Y-111575795D02*
X151868767Y-111613890D01*
X151868767Y-111613890D02*
X151906863Y-111651985D01*
X152173529Y-111575795D02*
X152668767Y-111575795D01*
X152668767Y-111575795D02*
X152402101Y-111880557D01*
X152402101Y-111880557D02*
X152516386Y-111880557D01*
X152516386Y-111880557D02*
X152592577Y-111918652D01*
X152592577Y-111918652D02*
X152630672Y-111956747D01*
X152630672Y-111956747D02*
X152668767Y-112032938D01*
X152668767Y-112032938D02*
X152668767Y-112223414D01*
X152668767Y-112223414D02*
X152630672Y-112299604D01*
X152630672Y-112299604D02*
X152592577Y-112337700D01*
X152592577Y-112337700D02*
X152516386Y-112375795D01*
X152516386Y-112375795D02*
X152287815Y-112375795D01*
X152287815Y-112375795D02*
X152211624Y-112337700D01*
X152211624Y-112337700D02*
X152173529Y-112299604D01*
X143330672Y-105680795D02*
X143330672Y-106328414D01*
X143330672Y-106328414D02*
X143368767Y-106404604D01*
X143368767Y-106404604D02*
X143406862Y-106442700D01*
X143406862Y-106442700D02*
X143483053Y-106480795D01*
X143483053Y-106480795D02*
X143635434Y-106480795D01*
X143635434Y-106480795D02*
X143711624Y-106442700D01*
X143711624Y-106442700D02*
X143749719Y-106404604D01*
X143749719Y-106404604D02*
X143787815Y-106328414D01*
X143787815Y-106328414D02*
X143787815Y-105680795D01*
X144587814Y-106480795D02*
X144130671Y-106480795D01*
X144359243Y-106480795D02*
X144359243Y-105680795D01*
X144359243Y-105680795D02*
X144283052Y-105795080D01*
X144283052Y-105795080D02*
X144206862Y-105871271D01*
X144206862Y-105871271D02*
X144130671Y-105909366D01*
X127673529Y-112180795D02*
X127673529Y-112752223D01*
X127673529Y-112752223D02*
X127635434Y-112866509D01*
X127635434Y-112866509D02*
X127559243Y-112942700D01*
X127559243Y-112942700D02*
X127444958Y-112980795D01*
X127444958Y-112980795D02*
X127368767Y-112980795D01*
X128016386Y-112256985D02*
X128054482Y-112218890D01*
X128054482Y-112218890D02*
X128130672Y-112180795D01*
X128130672Y-112180795D02*
X128321148Y-112180795D01*
X128321148Y-112180795D02*
X128397339Y-112218890D01*
X128397339Y-112218890D02*
X128435434Y-112256985D01*
X128435434Y-112256985D02*
X128473529Y-112333176D01*
X128473529Y-112333176D02*
X128473529Y-112409366D01*
X128473529Y-112409366D02*
X128435434Y-112523652D01*
X128435434Y-112523652D02*
X127978291Y-112980795D01*
X127978291Y-112980795D02*
X128473529Y-112980795D01*
X141446863Y-107578295D02*
X141180196Y-107197342D01*
X140989720Y-107578295D02*
X140989720Y-106778295D01*
X140989720Y-106778295D02*
X141294482Y-106778295D01*
X141294482Y-106778295D02*
X141370672Y-106816390D01*
X141370672Y-106816390D02*
X141408767Y-106854485D01*
X141408767Y-106854485D02*
X141446863Y-106930676D01*
X141446863Y-106930676D02*
X141446863Y-107044961D01*
X141446863Y-107044961D02*
X141408767Y-107121152D01*
X141408767Y-107121152D02*
X141370672Y-107159247D01*
X141370672Y-107159247D02*
X141294482Y-107197342D01*
X141294482Y-107197342D02*
X140989720Y-107197342D01*
X141751624Y-106854485D02*
X141789720Y-106816390D01*
X141789720Y-106816390D02*
X141865910Y-106778295D01*
X141865910Y-106778295D02*
X142056386Y-106778295D01*
X142056386Y-106778295D02*
X142132577Y-106816390D01*
X142132577Y-106816390D02*
X142170672Y-106854485D01*
X142170672Y-106854485D02*
X142208767Y-106930676D01*
X142208767Y-106930676D02*
X142208767Y-107006866D01*
X142208767Y-107006866D02*
X142170672Y-107121152D01*
X142170672Y-107121152D02*
X141713529Y-107578295D01*
X141713529Y-107578295D02*
X142208767Y-107578295D01*
X132954391Y-98014867D02*
X132916296Y-97976771D01*
X132916296Y-97976771D02*
X132878200Y-97862486D01*
X132878200Y-97862486D02*
X132878200Y-97786295D01*
X132878200Y-97786295D02*
X132916296Y-97672009D01*
X132916296Y-97672009D02*
X132992486Y-97595819D01*
X132992486Y-97595819D02*
X133068676Y-97557724D01*
X133068676Y-97557724D02*
X133221057Y-97519628D01*
X133221057Y-97519628D02*
X133335343Y-97519628D01*
X133335343Y-97519628D02*
X133487724Y-97557724D01*
X133487724Y-97557724D02*
X133563915Y-97595819D01*
X133563915Y-97595819D02*
X133640105Y-97672009D01*
X133640105Y-97672009D02*
X133678200Y-97786295D01*
X133678200Y-97786295D02*
X133678200Y-97862486D01*
X133678200Y-97862486D02*
X133640105Y-97976771D01*
X133640105Y-97976771D02*
X133602010Y-98014867D01*
X132878200Y-98814867D02*
X133259153Y-98548200D01*
X132878200Y-98357724D02*
X133678200Y-98357724D01*
X133678200Y-98357724D02*
X133678200Y-98662486D01*
X133678200Y-98662486D02*
X133640105Y-98738676D01*
X133640105Y-98738676D02*
X133602010Y-98776771D01*
X133602010Y-98776771D02*
X133525819Y-98814867D01*
X133525819Y-98814867D02*
X133411534Y-98814867D01*
X133411534Y-98814867D02*
X133335343Y-98776771D01*
X133335343Y-98776771D02*
X133297248Y-98738676D01*
X133297248Y-98738676D02*
X133259153Y-98662486D01*
X133259153Y-98662486D02*
X133259153Y-98357724D01*
X133602010Y-99119628D02*
X133640105Y-99157724D01*
X133640105Y-99157724D02*
X133678200Y-99233914D01*
X133678200Y-99233914D02*
X133678200Y-99424390D01*
X133678200Y-99424390D02*
X133640105Y-99500581D01*
X133640105Y-99500581D02*
X133602010Y-99538676D01*
X133602010Y-99538676D02*
X133525819Y-99576771D01*
X133525819Y-99576771D02*
X133449629Y-99576771D01*
X133449629Y-99576771D02*
X133335343Y-99538676D01*
X133335343Y-99538676D02*
X132878200Y-99081533D01*
X132878200Y-99081533D02*
X132878200Y-99576771D01*
X136366863Y-111388295D02*
X136100196Y-111007342D01*
X135909720Y-111388295D02*
X135909720Y-110588295D01*
X135909720Y-110588295D02*
X136214482Y-110588295D01*
X136214482Y-110588295D02*
X136290672Y-110626390D01*
X136290672Y-110626390D02*
X136328767Y-110664485D01*
X136328767Y-110664485D02*
X136366863Y-110740676D01*
X136366863Y-110740676D02*
X136366863Y-110854961D01*
X136366863Y-110854961D02*
X136328767Y-110931152D01*
X136328767Y-110931152D02*
X136290672Y-110969247D01*
X136290672Y-110969247D02*
X136214482Y-111007342D01*
X136214482Y-111007342D02*
X135909720Y-111007342D01*
X137052577Y-110854961D02*
X137052577Y-111388295D01*
X136862101Y-110550200D02*
X136671624Y-111121628D01*
X136671624Y-111121628D02*
X137166863Y-111121628D01*
D11*
%TO.C,R3*%
X136807260Y-109598400D02*
X136353132Y-109598400D01*
X136807260Y-108128400D02*
X136353132Y-108128400D01*
%TO.C,Q1*%
X131320196Y-109528400D02*
X132840196Y-109528400D01*
X131320196Y-109578400D02*
X131320196Y-109528400D01*
X131320196Y-111478400D02*
X131320196Y-110698400D01*
X131320196Y-112648400D02*
X131320196Y-112598400D01*
X132840196Y-109528400D02*
X132840196Y-110528400D01*
X132840196Y-111648400D02*
X132840196Y-112648400D01*
X132840196Y-112648400D02*
X131320196Y-112648400D01*
X131020196Y-111038400D02*
X130540196Y-111038400D01*
X130780196Y-110708400D01*
X131020196Y-111038400D01*
G36*
X131020196Y-111038400D02*
G01*
X130540196Y-111038400D01*
X130780196Y-110708400D01*
X131020196Y-111038400D01*
G37*
%TO.C,J4*%
X117775196Y-100800900D02*
X123775196Y-100800900D01*
X117775196Y-101660900D02*
X117775196Y-100800900D01*
X123775196Y-99850900D02*
X123775196Y-105150900D01*
X123775196Y-101660900D02*
X117775196Y-101660900D01*
X123775196Y-105150900D02*
X126535196Y-105150900D01*
X126535196Y-99850900D02*
X123775196Y-99850900D01*
X126535196Y-102500900D02*
X123775196Y-102500900D01*
X126535196Y-105150900D02*
X126535196Y-99850900D01*
X126765196Y-103340900D02*
X126535196Y-103340900D01*
X126765196Y-104200900D02*
X126535196Y-104200900D01*
X126847838Y-100800900D02*
X126535196Y-100800900D01*
X126847838Y-101660900D02*
X126535196Y-101660900D01*
X129195196Y-103770900D02*
X129195196Y-105040900D01*
X129195196Y-105040900D02*
X127925196Y-105040900D01*
X123775196Y-104200900D02*
X117775196Y-104200900D01*
X117775196Y-103340900D01*
X123775196Y-103340900D01*
X123775196Y-104200900D01*
G36*
X123775196Y-104200900D02*
G01*
X117775196Y-104200900D01*
X117775196Y-103340900D01*
X123775196Y-103340900D01*
X123775196Y-104200900D01*
G37*
%TO.C,J3*%
X129960196Y-106190900D02*
X129960196Y-101350900D01*
X135586863Y-104405900D02*
X135586863Y-103135900D01*
X139860196Y-101350900D02*
X129960196Y-101350900D01*
X139860196Y-106190900D02*
X129960196Y-106190900D01*
X139860196Y-106190900D02*
X139860196Y-101350900D01*
X140100196Y-106430900D02*
X138717196Y-106430900D01*
X140100196Y-106430900D02*
X140100196Y-105047900D01*
X136940196Y-104405900D02*
X132880196Y-104405900D01*
X132880196Y-103135900D01*
X136940196Y-103135900D01*
X136940196Y-104405900D01*
X136940196Y-104405900D02*
X135586863Y-104405900D01*
X135586863Y-103135900D01*
X136940196Y-103135900D01*
X136940196Y-104405900D01*
G36*
X136940196Y-104405900D02*
G01*
X135586863Y-104405900D01*
X135586863Y-103135900D01*
X136940196Y-103135900D01*
X136940196Y-104405900D01*
G37*
%TO.C,R1*%
X145798132Y-108128400D02*
X146252260Y-108128400D01*
X145798132Y-109598400D02*
X146252260Y-109598400D01*
%TO.C,J1*%
X156500196Y-103135900D02*
X157770196Y-103135900D01*
X156500196Y-104405900D02*
X156500196Y-103135900D01*
X158847554Y-106515900D02*
X159160196Y-106515900D01*
X158847554Y-107375900D02*
X159160196Y-107375900D01*
X158930196Y-103975900D02*
X159160196Y-103975900D01*
X158930196Y-104835900D02*
X159160196Y-104835900D01*
X159160196Y-103025900D02*
X159160196Y-108325900D01*
X159160196Y-105675900D02*
X161920196Y-105675900D01*
X159160196Y-108325900D02*
X161920196Y-108325900D01*
X161920196Y-103025900D02*
X159160196Y-103025900D01*
X161920196Y-106515900D02*
X167920196Y-106515900D01*
X161920196Y-108325900D02*
X161920196Y-103025900D01*
X167920196Y-106515900D02*
X167920196Y-107375900D01*
X167920196Y-107375900D02*
X161920196Y-107375900D01*
X161920196Y-103975900D02*
X167920196Y-103975900D01*
X167920196Y-104835900D01*
X161920196Y-104835900D01*
X161920196Y-103975900D01*
G36*
X161920196Y-103975900D02*
G01*
X167920196Y-103975900D01*
X167920196Y-104835900D01*
X161920196Y-104835900D01*
X161920196Y-103975900D01*
G37*
%TO.C,C2*%
X143078948Y-111763400D02*
X141656444Y-111763400D01*
X143078948Y-113583400D02*
X141656444Y-113583400D01*
%TO.C,C1*%
X150768948Y-108158400D02*
X150246444Y-108158400D01*
X150768948Y-109628400D02*
X150246444Y-109628400D01*
D12*
%TO.C,L1*%
X148499196Y-97967000D02*
X148499196Y-105714000D01*
X148499196Y-105714000D02*
X150071456Y-105714000D01*
X150071456Y-97967000D02*
X148499196Y-97967000D01*
X154038936Y-105714000D02*
X155611196Y-105714000D01*
X155611196Y-97967000D02*
X154038936Y-97967000D01*
X155611196Y-105714000D02*
X155611196Y-97967000D01*
X152131396Y-96824000D02*
G75*
G02*
X151978996Y-96824000I-76200J0D01*
G01*
X151978996Y-96824000D02*
G75*
G02*
X152131396Y-96824000I76200J0D01*
G01*
%TO.C,CR1*%
X138470596Y-97103200D02*
X138470596Y-97519760D01*
X138470596Y-99887040D02*
X138470596Y-100303600D01*
X138470596Y-100303600D02*
X143474396Y-100303600D01*
X143474396Y-97103200D02*
X138470596Y-97103200D01*
X143474396Y-97519760D02*
X143474396Y-97103200D01*
X143474396Y-100303600D02*
X143474396Y-99887040D01*
X145087296Y-98703400D02*
G75*
G02*
X144934896Y-98703400I-76200J0D01*
G01*
X144934896Y-98703400D02*
G75*
G02*
X145087296Y-98703400I76200J0D01*
G01*
D11*
%TO.C,C3*%
X148938944Y-111290900D02*
X149461448Y-111290900D01*
X148938944Y-112760900D02*
X149461448Y-112760900D01*
D12*
%TO.C,U1*%
X143036246Y-103125540D02*
X143036246Y-103801262D01*
X143036246Y-105038201D02*
X144839646Y-105038201D01*
X144839646Y-101888601D02*
X143036246Y-101888601D01*
D11*
%TO.C,J2*%
X117775196Y-107150900D02*
X123775196Y-107150900D01*
X117775196Y-108010900D02*
X117775196Y-107150900D01*
X123775196Y-106200900D02*
X123775196Y-111500900D01*
X123775196Y-108010900D02*
X117775196Y-108010900D01*
X123775196Y-111500900D02*
X126535196Y-111500900D01*
X126535196Y-106200900D02*
X123775196Y-106200900D01*
X126535196Y-108850900D02*
X123775196Y-108850900D01*
X126535196Y-111500900D02*
X126535196Y-106200900D01*
X126765196Y-109690900D02*
X126535196Y-109690900D01*
X126765196Y-110550900D02*
X126535196Y-110550900D01*
X126847838Y-107150900D02*
X126535196Y-107150900D01*
X126847838Y-108010900D02*
X126535196Y-108010900D01*
X129195196Y-110120900D02*
X129195196Y-111390900D01*
X129195196Y-111390900D02*
X127925196Y-111390900D01*
X123775196Y-110550900D02*
X117775196Y-110550900D01*
X117775196Y-109690900D01*
X123775196Y-109690900D01*
X123775196Y-110550900D01*
G36*
X123775196Y-110550900D02*
G01*
X117775196Y-110550900D01*
X117775196Y-109690900D01*
X123775196Y-109690900D01*
X123775196Y-110550900D01*
G37*
%TO.C,R2*%
X141353132Y-108128400D02*
X141807260Y-108128400D01*
X141353132Y-109598400D02*
X141807260Y-109598400D01*
D12*
%TO.C,CR2*%
X130875996Y-96938100D02*
X130875996Y-97354660D01*
X130875996Y-99721940D02*
X130875996Y-100138500D01*
X130875996Y-100138500D02*
X135879796Y-100138500D01*
X135879796Y-96938100D02*
X130875996Y-96938100D01*
X135879796Y-97354660D02*
X135879796Y-96938100D01*
X135879796Y-100138500D02*
X135879796Y-99721940D01*
X137492696Y-98538300D02*
G75*
G02*
X137340296Y-98538300I-76200J0D01*
G01*
X137340296Y-98538300D02*
G75*
G02*
X137492696Y-98538300I76200J0D01*
G01*
D11*
%TO.C,R4*%
X136273132Y-111938400D02*
X136727260Y-111938400D01*
X136273132Y-113408400D02*
X136727260Y-113408400D01*
%TD*%
M02*
