%TF.GenerationSoftware,KiCad,Pcbnew,9.0.5*%
%TF.CreationDate,2025-11-28T10:22:16-08:00*%
%TF.ProjectId,project3_tiny_solar_power_supply,70726f6a-6563-4743-935f-74696e795f73,rev?*%
%TF.SameCoordinates,Original*%
%TF.FileFunction,Copper,L2,Bot*%
%TF.FilePolarity,Positive*%
%FSLAX46Y46*%
G04 Gerber Fmt 4.6, Leading zero omitted, Abs format (unit mm)*
G04 Created by KiCad (PCBNEW 9.0.5) date 2025-11-28 10:22:16*
%MOMM*%
%LPD*%
G01*
G04 APERTURE LIST*
G04 Aperture macros list*
%AMRoundRect*
0 Rectangle with rounded corners*
0 $1 Rounding radius*
0 $2 $3 $4 $5 $6 $7 $8 $9 X,Y pos of 4 corners*
0 Add a 4 corners polygon primitive as box body*
4,1,4,$2,$3,$4,$5,$6,$7,$8,$9,$2,$3,0*
0 Add four circle primitives for the rounded corners*
1,1,$1+$1,$2,$3*
1,1,$1+$1,$4,$5*
1,1,$1+$1,$6,$7*
1,1,$1+$1,$8,$9*
0 Add four rect primitives between the rounded corners*
20,1,$1+$1,$2,$3,$4,$5,0*
20,1,$1+$1,$4,$5,$6,$7,0*
20,1,$1+$1,$6,$7,$8,$9,0*
20,1,$1+$1,$8,$9,$2,$3,0*%
G04 Aperture macros list end*
%TA.AperFunction,ComponentPad*%
%ADD10R,1.700000X1.700000*%
%TD*%
%TA.AperFunction,ComponentPad*%
%ADD11C,1.700000*%
%TD*%
%TA.AperFunction,ComponentPad*%
%ADD12RoundRect,0.250000X0.550000X0.550000X-0.550000X0.550000X-0.550000X-0.550000X0.550000X-0.550000X0*%
%TD*%
%TA.AperFunction,ComponentPad*%
%ADD13C,1.600000*%
%TD*%
%TA.AperFunction,ViaPad*%
%ADD14C,0.800000*%
%TD*%
%TA.AperFunction,Conductor*%
%ADD15C,0.250000*%
%TD*%
G04 APERTURE END LIST*
D10*
%TO.P,J4,1,Pin_1*%
%TO.N,/SOLAR_P*%
X127925196Y-103770900D03*
D11*
%TO.P,J4,2,Pin_2*%
%TO.N,GNDD*%
X127925196Y-101230900D03*
%TD*%
D12*
%TO.P,J3,1,Pin_1*%
%TO.N,Net-(J3-Pin_1)*%
X138720196Y-103770900D03*
D13*
%TO.P,J3,2,Pin_2*%
%TO.N,/BAT_P*%
X131100196Y-103770900D03*
%TD*%
D10*
%TO.P,J1,1,Pin_1*%
%TO.N,GNDD*%
X157770196Y-104405900D03*
D11*
%TO.P,J1,2,Pin_2*%
%TO.N,/OUT_P*%
X157770196Y-106945900D03*
%TD*%
D10*
%TO.P,J2,1,Pin_1*%
%TO.N,/BAT_P*%
X127925196Y-110120900D03*
D11*
%TO.P,J2,2,Pin_2*%
%TO.N,GNDD*%
X127925196Y-107580900D03*
%TD*%
D14*
%TO.N,Net-(J3-Pin_1)*%
X141615796Y-105879100D03*
X148626196Y-106742700D03*
%TO.N,GNDD*%
X148321396Y-107758700D03*
X142492696Y-110515900D03*
X146783596Y-103135900D03*
X139140196Y-112673400D03*
%TO.N,Net-(U1-FB)*%
X147935196Y-110420900D03*
X140701396Y-110654300D03*
%TD*%
D15*
%TO.N,Net-(J3-Pin_1)*%
X142479396Y-106742700D02*
X141615796Y-105879100D01*
X148626196Y-106742700D02*
X142479396Y-106742700D01*
%TO.N,Net-(U1-FB)*%
X147114196Y-111241900D02*
X141288996Y-111241900D01*
X147935196Y-110420900D02*
X147114196Y-111241900D01*
X141288996Y-111241900D02*
X140701396Y-110654300D01*
%TD*%
%TA.AperFunction,Conductor*%
%TO.N,GNDD*%
G36*
X158519327Y-96551585D02*
G01*
X158565082Y-96604389D01*
X158575026Y-96673547D01*
X158552607Y-96728784D01*
X158525780Y-96765708D01*
X158419134Y-96975011D01*
X158346542Y-97198427D01*
X158309794Y-97430445D01*
X158309794Y-97665354D01*
X158346542Y-97897372D01*
X158419134Y-98120788D01*
X158452932Y-98187119D01*
X158513500Y-98305991D01*
X158525781Y-98330092D01*
X158663849Y-98520128D01*
X158663853Y-98520133D01*
X158829962Y-98686242D01*
X158829967Y-98686246D01*
X158986835Y-98800216D01*
X159020007Y-98824317D01*
X159153376Y-98892271D01*
X159229307Y-98930961D01*
X159229309Y-98930961D01*
X159229312Y-98930963D01*
X159452724Y-99003554D01*
X159684741Y-99040302D01*
X159684757Y-99040302D01*
X159687927Y-99040552D01*
X159689069Y-99040987D01*
X159689553Y-99041064D01*
X159689536Y-99041165D01*
X159753215Y-99065437D01*
X159794685Y-99121669D01*
X159802196Y-99164170D01*
X159802196Y-111425629D01*
X159782511Y-111492668D01*
X159729707Y-111538423D01*
X159687943Y-111549245D01*
X159684749Y-111549496D01*
X159452723Y-111586246D01*
X159229307Y-111658838D01*
X159020003Y-111765485D01*
X158829967Y-111903553D01*
X158829962Y-111903557D01*
X158663853Y-112069666D01*
X158663849Y-112069671D01*
X158525781Y-112259707D01*
X158419134Y-112469011D01*
X158373066Y-112610795D01*
X158346542Y-112692428D01*
X158309794Y-112924445D01*
X158309794Y-112977759D01*
X158309794Y-113159355D01*
X158338571Y-113341047D01*
X158346542Y-113391372D01*
X158419134Y-113614788D01*
X158525780Y-113824091D01*
X158552607Y-113861016D01*
X158576086Y-113926822D01*
X158560260Y-113994876D01*
X158510154Y-114043570D01*
X158452288Y-114057900D01*
X127243104Y-114057900D01*
X127176065Y-114038215D01*
X127130310Y-113985411D01*
X127120366Y-113916253D01*
X127142785Y-113861016D01*
X127159734Y-113837686D01*
X127169613Y-113824089D01*
X127276259Y-113614784D01*
X127348850Y-113391372D01*
X127385598Y-113159355D01*
X127385598Y-112924445D01*
X127348850Y-112692428D01*
X127276383Y-112469399D01*
X128641196Y-112469399D01*
X128641196Y-112933900D01*
X130143196Y-112933900D01*
X131141196Y-112933900D01*
X132643196Y-112933900D01*
X133641196Y-112933900D01*
X135143196Y-112933900D01*
X136141196Y-112933900D01*
X137643196Y-112933900D01*
X137643196Y-112183386D01*
X148641196Y-112183386D01*
X148641196Y-112933900D01*
X150143196Y-112933900D01*
X151141196Y-112933900D01*
X152643196Y-112933900D01*
X153641196Y-112933900D01*
X155143196Y-112933900D01*
X156141196Y-112933900D01*
X157311794Y-112933900D01*
X157311794Y-112904835D01*
X157311890Y-112899963D01*
X157313048Y-112870511D01*
X157313335Y-112865646D01*
X157316413Y-112826567D01*
X157316890Y-112821729D01*
X157320350Y-112792496D01*
X157321017Y-112787673D01*
X157363893Y-112516962D01*
X157364748Y-112512170D01*
X157370489Y-112483306D01*
X157371531Y-112478559D01*
X157380679Y-112440441D01*
X157381910Y-112435722D01*
X157389913Y-112407343D01*
X157391327Y-112402681D01*
X157476032Y-112141987D01*
X157477626Y-112137390D01*
X157487811Y-112109780D01*
X157489583Y-112105251D01*
X157504581Y-112069035D01*
X157506536Y-112064567D01*
X157518879Y-112037792D01*
X157521004Y-112033410D01*
X157643196Y-111793592D01*
X157643196Y-111779900D01*
X156141196Y-111779900D01*
X156141196Y-112933900D01*
X155143196Y-112933900D01*
X155143196Y-111779900D01*
X153641196Y-111779900D01*
X153641196Y-112933900D01*
X152643196Y-112933900D01*
X152643196Y-111779900D01*
X151141196Y-111779900D01*
X151141196Y-112933900D01*
X150143196Y-112933900D01*
X150143196Y-111779900D01*
X149261080Y-111779900D01*
X149197596Y-111843384D01*
X149193187Y-111847582D01*
X149165900Y-111872313D01*
X149161293Y-111876287D01*
X149123411Y-111907376D01*
X149118613Y-111911121D01*
X149089041Y-111933053D01*
X149084065Y-111936557D01*
X148895828Y-112062334D01*
X148890684Y-112065591D01*
X148859090Y-112084527D01*
X148853795Y-112087527D01*
X148810573Y-112110629D01*
X148805134Y-112113366D01*
X148771852Y-112129106D01*
X148766291Y-112131571D01*
X148641196Y-112183386D01*
X137643196Y-112183386D01*
X137643196Y-111779900D01*
X136141196Y-111779900D01*
X136141196Y-112933900D01*
X135143196Y-112933900D01*
X135143196Y-111779900D01*
X133641196Y-111779900D01*
X133641196Y-112933900D01*
X132643196Y-112933900D01*
X132643196Y-111779900D01*
X131141196Y-111779900D01*
X131141196Y-112933900D01*
X130143196Y-112933900D01*
X130143196Y-111779900D01*
X130041290Y-111779900D01*
X130039294Y-111782774D01*
X129910310Y-111955073D01*
X129904757Y-111961964D01*
X129869677Y-112002449D01*
X129863645Y-112008928D01*
X129813224Y-112059349D01*
X129806745Y-112065381D01*
X129766260Y-112100461D01*
X129759369Y-112106014D01*
X129587070Y-112234998D01*
X129579800Y-112240046D01*
X129534733Y-112269010D01*
X129527119Y-112273528D01*
X129464529Y-112307705D01*
X129456615Y-112311667D01*
X129407878Y-112333925D01*
X129399698Y-112337313D01*
X129202214Y-112410969D01*
X129194875Y-112413448D01*
X129150024Y-112427053D01*
X129142548Y-112429068D01*
X129081833Y-112443416D01*
X129074241Y-112444961D01*
X129028036Y-112452872D01*
X129020363Y-112453941D01*
X128916441Y-112465112D01*
X128913132Y-112465423D01*
X128893095Y-112467035D01*
X128889783Y-112467257D01*
X128863101Y-112468686D01*
X128859783Y-112468819D01*
X128839732Y-112469355D01*
X128836418Y-112469399D01*
X128641196Y-112469399D01*
X127276383Y-112469399D01*
X127276259Y-112469016D01*
X127276257Y-112469013D01*
X127276257Y-112469011D01*
X127209153Y-112337313D01*
X127169613Y-112259711D01*
X127080742Y-112137390D01*
X127031542Y-112069671D01*
X127031538Y-112069666D01*
X126865429Y-111903557D01*
X126865424Y-111903553D01*
X126675388Y-111765485D01*
X126675387Y-111765484D01*
X126675385Y-111765483D01*
X126601345Y-111727758D01*
X126466084Y-111658838D01*
X126242668Y-111586246D01*
X126010642Y-111549496D01*
X126007449Y-111549245D01*
X126006309Y-111548810D01*
X126005839Y-111548736D01*
X126005854Y-111548637D01*
X125942165Y-111524352D01*
X125900702Y-111468115D01*
X125893196Y-111425629D01*
X125893196Y-109223035D01*
X126574696Y-109223035D01*
X126574696Y-111018770D01*
X126574697Y-111018776D01*
X126581104Y-111078383D01*
X126631398Y-111213228D01*
X126631402Y-111213235D01*
X126717648Y-111328444D01*
X126717651Y-111328447D01*
X126832860Y-111414693D01*
X126832867Y-111414697D01*
X126967713Y-111464991D01*
X126967712Y-111464991D01*
X126974640Y-111465735D01*
X127027323Y-111471400D01*
X128823068Y-111471399D01*
X128882679Y-111464991D01*
X129017527Y-111414696D01*
X129132742Y-111328446D01*
X129218992Y-111213231D01*
X129269287Y-111078383D01*
X129275696Y-111018773D01*
X129275696Y-110781900D01*
X131141196Y-110781900D01*
X132643196Y-110781900D01*
X133641196Y-110781900D01*
X135143196Y-110781900D01*
X136141196Y-110781900D01*
X137643196Y-110781900D01*
X138641196Y-110781900D01*
X138803454Y-110781900D01*
X138803045Y-110773574D01*
X138802896Y-110767491D01*
X138802896Y-110565604D01*
X139800896Y-110565604D01*
X139800896Y-110742995D01*
X139835499Y-110916958D01*
X139835502Y-110916967D01*
X139903379Y-111080840D01*
X139903386Y-111080853D01*
X140001931Y-111228334D01*
X140001934Y-111228338D01*
X140127357Y-111353761D01*
X140127361Y-111353764D01*
X140274842Y-111452309D01*
X140274855Y-111452316D01*
X140397759Y-111503223D01*
X140438730Y-111520194D01*
X140438732Y-111520194D01*
X140438737Y-111520196D01*
X140612700Y-111554799D01*
X140612703Y-111554800D01*
X140612705Y-111554800D01*
X140665944Y-111554800D01*
X140732983Y-111574485D01*
X140753625Y-111591119D01*
X140800012Y-111637506D01*
X140800041Y-111637537D01*
X140890260Y-111727756D01*
X140890263Y-111727758D01*
X140967186Y-111779156D01*
X140992706Y-111796209D01*
X140992708Y-111796210D01*
X140992711Y-111796212D01*
X141059392Y-111823831D01*
X141059394Y-111823833D01*
X141099636Y-111840501D01*
X141106544Y-111843363D01*
X141166967Y-111855381D01*
X141227389Y-111867400D01*
X147175803Y-111867400D01*
X147236225Y-111855381D01*
X147296648Y-111843363D01*
X147296651Y-111843361D01*
X147296654Y-111843361D01*
X147329983Y-111829554D01*
X147329982Y-111829554D01*
X147329988Y-111829552D01*
X147410482Y-111796212D01*
X147461705Y-111761984D01*
X147512929Y-111727758D01*
X147600054Y-111640633D01*
X147600055Y-111640630D01*
X147882968Y-111357716D01*
X147944290Y-111324234D01*
X147970648Y-111321400D01*
X148023889Y-111321400D01*
X148023890Y-111321399D01*
X148081878Y-111309864D01*
X148197854Y-111286796D01*
X148197857Y-111286794D01*
X148197862Y-111286794D01*
X148361743Y-111218913D01*
X148509231Y-111120364D01*
X148634660Y-110994935D01*
X148733209Y-110847447D01*
X148801090Y-110683566D01*
X148801749Y-110680257D01*
X148830637Y-110535026D01*
X148835696Y-110509591D01*
X148835696Y-110332209D01*
X148835696Y-110332206D01*
X148835695Y-110332204D01*
X148801092Y-110158241D01*
X148801089Y-110158232D01*
X148733212Y-109994359D01*
X148733205Y-109994346D01*
X148634660Y-109846865D01*
X148634657Y-109846861D01*
X148509234Y-109721438D01*
X148509230Y-109721435D01*
X148361749Y-109622890D01*
X148361736Y-109622883D01*
X148197863Y-109555006D01*
X148197854Y-109555003D01*
X148023890Y-109520400D01*
X148023887Y-109520400D01*
X147846505Y-109520400D01*
X147846502Y-109520400D01*
X147672537Y-109555003D01*
X147672528Y-109555006D01*
X147508655Y-109622883D01*
X147508642Y-109622890D01*
X147361161Y-109721435D01*
X147361157Y-109721438D01*
X147235734Y-109846861D01*
X147235731Y-109846865D01*
X147137186Y-109994346D01*
X147137179Y-109994359D01*
X147069302Y-110158232D01*
X147069299Y-110158241D01*
X147034696Y-110332204D01*
X147034696Y-110385447D01*
X147015011Y-110452486D01*
X146998381Y-110473123D01*
X146891423Y-110580082D01*
X146830103Y-110613566D01*
X146803744Y-110616400D01*
X141713763Y-110616400D01*
X141646724Y-110596715D01*
X141600969Y-110543911D01*
X141592146Y-110516591D01*
X141567292Y-110391641D01*
X141567289Y-110391632D01*
X141499412Y-110227759D01*
X141499405Y-110227746D01*
X141400860Y-110080265D01*
X141400857Y-110080261D01*
X141275434Y-109954838D01*
X141275430Y-109954835D01*
X141127949Y-109856290D01*
X141127936Y-109856283D01*
X140964063Y-109788406D01*
X140964054Y-109788403D01*
X140790090Y-109753800D01*
X140790087Y-109753800D01*
X140612705Y-109753800D01*
X140612702Y-109753800D01*
X140438737Y-109788403D01*
X140438728Y-109788406D01*
X140274855Y-109856283D01*
X140274842Y-109856290D01*
X140127361Y-109954835D01*
X140127357Y-109954838D01*
X140001934Y-110080261D01*
X140001931Y-110080265D01*
X139903386Y-110227746D01*
X139903379Y-110227759D01*
X139835502Y-110391632D01*
X139835499Y-110391641D01*
X139800896Y-110565604D01*
X138802896Y-110565604D01*
X138802896Y-110541109D01*
X138803045Y-110535026D01*
X138804851Y-110498254D01*
X138805299Y-110492184D01*
X138810102Y-110443412D01*
X138810847Y-110437371D01*
X138816251Y-110400940D01*
X138817292Y-110394943D01*
X138861461Y-110172892D01*
X138862795Y-110166951D01*
X138871747Y-110131216D01*
X138873371Y-110125348D01*
X138887598Y-110078455D01*
X138889506Y-110072680D01*
X138901905Y-110038028D01*
X138904095Y-110032351D01*
X138990725Y-109823205D01*
X138993190Y-109817644D01*
X139008930Y-109784362D01*
X139011667Y-109778923D01*
X139034769Y-109735701D01*
X139037769Y-109730406D01*
X139056705Y-109698812D01*
X139059962Y-109693668D01*
X139110255Y-109618400D01*
X143641196Y-109618400D01*
X145143196Y-109618400D01*
X145143196Y-109279900D01*
X149456111Y-109279900D01*
X149576630Y-109460268D01*
X149579887Y-109465412D01*
X149598823Y-109497006D01*
X149601823Y-109502301D01*
X149624925Y-109545523D01*
X149627662Y-109550962D01*
X149643402Y-109584244D01*
X149645867Y-109589805D01*
X149732497Y-109798951D01*
X149734687Y-109804628D01*
X149747086Y-109839280D01*
X149748994Y-109845055D01*
X149763221Y-109891948D01*
X149764845Y-109897816D01*
X149773797Y-109933551D01*
X149775131Y-109939492D01*
X149819300Y-110161543D01*
X149820341Y-110167540D01*
X149825745Y-110203971D01*
X149826490Y-110210012D01*
X149831293Y-110258784D01*
X149831741Y-110264854D01*
X149833547Y-110301626D01*
X149833696Y-110307709D01*
X149833696Y-110534091D01*
X149833547Y-110540174D01*
X149831741Y-110576946D01*
X149831293Y-110583016D01*
X149826490Y-110631788D01*
X149825745Y-110637829D01*
X149820341Y-110674260D01*
X149819300Y-110680257D01*
X149799082Y-110781900D01*
X150143196Y-110781900D01*
X151141196Y-110781900D01*
X152643196Y-110781900D01*
X153641196Y-110781900D01*
X155143196Y-110781900D01*
X156141196Y-110781900D01*
X157643196Y-110781900D01*
X157643196Y-109294378D01*
X157639427Y-109294304D01*
X157609975Y-109293146D01*
X157605110Y-109292859D01*
X157566031Y-109289781D01*
X157561193Y-109289304D01*
X157531960Y-109285844D01*
X157527137Y-109285177D01*
X157493819Y-109279900D01*
X156141196Y-109279900D01*
X156141196Y-110781900D01*
X155143196Y-110781900D01*
X155143196Y-109279900D01*
X153641196Y-109279900D01*
X153641196Y-110781900D01*
X152643196Y-110781900D01*
X152643196Y-109279900D01*
X151141196Y-109279900D01*
X151141196Y-110781900D01*
X150143196Y-110781900D01*
X150143196Y-109279900D01*
X149456111Y-109279900D01*
X145143196Y-109279900D01*
X143641196Y-109279900D01*
X143641196Y-109618400D01*
X139110255Y-109618400D01*
X139185739Y-109505431D01*
X139189243Y-109500455D01*
X139211175Y-109470883D01*
X139214920Y-109466085D01*
X139246009Y-109428203D01*
X139249983Y-109423596D01*
X139274714Y-109396309D01*
X139278912Y-109391900D01*
X139390912Y-109279900D01*
X138641196Y-109279900D01*
X138641196Y-110781900D01*
X137643196Y-110781900D01*
X137643196Y-109279900D01*
X136141196Y-109279900D01*
X136141196Y-110781900D01*
X135143196Y-110781900D01*
X135143196Y-109279900D01*
X133641196Y-109279900D01*
X133641196Y-110781900D01*
X132643196Y-110781900D01*
X132643196Y-109279900D01*
X131141196Y-109279900D01*
X131141196Y-110781900D01*
X129275696Y-110781900D01*
X129275695Y-109223028D01*
X129269287Y-109163417D01*
X129218992Y-109028569D01*
X129218991Y-109028568D01*
X129218989Y-109028564D01*
X129132743Y-108913355D01*
X129132740Y-108913352D01*
X129017531Y-108827106D01*
X129017524Y-108827102D01*
X128882678Y-108776808D01*
X128882679Y-108776808D01*
X128823079Y-108770401D01*
X128823077Y-108770400D01*
X128823069Y-108770400D01*
X128823061Y-108770400D01*
X128812505Y-108770400D01*
X128745466Y-108750715D01*
X128724824Y-108734081D01*
X128054604Y-108063862D01*
X128118189Y-108046825D01*
X128232203Y-107980999D01*
X128325295Y-107887907D01*
X128391121Y-107773893D01*
X128408158Y-107710309D01*
X129040466Y-108342617D01*
X129040466Y-108342616D01*
X129079818Y-108288454D01*
X129083157Y-108281900D01*
X131141196Y-108281900D01*
X132643196Y-108281900D01*
X133641196Y-108281900D01*
X135143196Y-108281900D01*
X136141196Y-108281900D01*
X137643196Y-108281900D01*
X138641196Y-108281900D01*
X140143196Y-108281900D01*
X151141196Y-108281900D01*
X152643196Y-108281900D01*
X153641196Y-108281900D01*
X155143196Y-108281900D01*
X155143196Y-106839613D01*
X156419696Y-106839613D01*
X156419696Y-107052186D01*
X156447630Y-107228558D01*
X156452950Y-107262143D01*
X156499211Y-107404520D01*
X156518640Y-107464314D01*
X156615147Y-107653720D01*
X156740086Y-107825686D01*
X156890409Y-107976009D01*
X157062375Y-108100948D01*
X157062377Y-108100949D01*
X157062380Y-108100951D01*
X157251784Y-108197457D01*
X157453953Y-108263146D01*
X157663909Y-108296400D01*
X157663910Y-108296400D01*
X157876482Y-108296400D01*
X157876483Y-108296400D01*
X158086439Y-108263146D01*
X158288608Y-108197457D01*
X158478012Y-108100951D01*
X158552511Y-108046825D01*
X158649982Y-107976009D01*
X158649984Y-107976006D01*
X158649988Y-107976004D01*
X158800300Y-107825692D01*
X158800302Y-107825688D01*
X158800305Y-107825686D01*
X158925244Y-107653720D01*
X158925243Y-107653720D01*
X158925247Y-107653716D01*
X159021753Y-107464312D01*
X159087442Y-107262143D01*
X159120696Y-107052187D01*
X159120696Y-106839613D01*
X159087442Y-106629657D01*
X159021753Y-106427488D01*
X158925247Y-106238084D01*
X158925245Y-106238081D01*
X158925244Y-106238079D01*
X158800305Y-106066113D01*
X158686377Y-105952185D01*
X158652892Y-105890862D01*
X158657876Y-105821170D01*
X158699748Y-105765237D01*
X158730725Y-105748322D01*
X158862282Y-105699254D01*
X158862289Y-105699250D01*
X158977383Y-105613090D01*
X158977386Y-105613087D01*
X159063546Y-105497993D01*
X159063550Y-105497986D01*
X159113792Y-105363279D01*
X159113794Y-105363272D01*
X159120195Y-105303744D01*
X159120196Y-105303727D01*
X159120196Y-104655900D01*
X158203208Y-104655900D01*
X158236121Y-104598893D01*
X158270196Y-104471726D01*
X158270196Y-104340074D01*
X158236121Y-104212907D01*
X158203208Y-104155900D01*
X159120196Y-104155900D01*
X159120196Y-103508072D01*
X159120195Y-103508055D01*
X159113794Y-103448527D01*
X159113792Y-103448520D01*
X159063550Y-103313813D01*
X159063546Y-103313806D01*
X158977386Y-103198712D01*
X158977383Y-103198709D01*
X158862289Y-103112549D01*
X158862282Y-103112545D01*
X158727575Y-103062303D01*
X158727568Y-103062301D01*
X158668040Y-103055900D01*
X158020196Y-103055900D01*
X158020196Y-103972888D01*
X157963189Y-103939975D01*
X157836022Y-103905900D01*
X157704370Y-103905900D01*
X157577203Y-103939975D01*
X157520196Y-103972888D01*
X157520196Y-103055900D01*
X156872351Y-103055900D01*
X156812823Y-103062301D01*
X156812816Y-103062303D01*
X156678109Y-103112545D01*
X156678102Y-103112549D01*
X156563008Y-103198709D01*
X156563005Y-103198712D01*
X156476845Y-103313806D01*
X156476841Y-103313813D01*
X156426599Y-103448520D01*
X156426597Y-103448527D01*
X156420196Y-103508055D01*
X156420196Y-104155900D01*
X157337184Y-104155900D01*
X157304271Y-104212907D01*
X157270196Y-104340074D01*
X157270196Y-104471726D01*
X157304271Y-104598893D01*
X157337184Y-104655900D01*
X156420196Y-104655900D01*
X156420196Y-105303744D01*
X156426597Y-105363272D01*
X156426599Y-105363279D01*
X156476841Y-105497986D01*
X156476845Y-105497993D01*
X156563005Y-105613087D01*
X156563008Y-105613090D01*
X156678102Y-105699250D01*
X156678109Y-105699254D01*
X156809666Y-105748322D01*
X156865600Y-105790193D01*
X156890017Y-105855658D01*
X156875165Y-105923931D01*
X156854015Y-105952185D01*
X156740085Y-106066115D01*
X156615147Y-106238079D01*
X156518640Y-106427485D01*
X156452949Y-106629660D01*
X156419696Y-106839613D01*
X155143196Y-106839613D01*
X155143196Y-106779900D01*
X153641196Y-106779900D01*
X153641196Y-108281900D01*
X152643196Y-108281900D01*
X152643196Y-106779900D01*
X151141196Y-106779900D01*
X151141196Y-108281900D01*
X140143196Y-108281900D01*
X140143196Y-107084222D01*
X140129320Y-107067315D01*
X140125575Y-107062517D01*
X140103643Y-107032945D01*
X140100139Y-107027969D01*
X139974362Y-106839732D01*
X139971105Y-106834588D01*
X139952169Y-106802994D01*
X139949169Y-106797699D01*
X139939655Y-106779900D01*
X138641196Y-106779900D01*
X138641196Y-108281900D01*
X137643196Y-108281900D01*
X137643196Y-106779900D01*
X136141196Y-106779900D01*
X136141196Y-108281900D01*
X135143196Y-108281900D01*
X135143196Y-106779900D01*
X133641196Y-106779900D01*
X133641196Y-108281900D01*
X132643196Y-108281900D01*
X132643196Y-106779900D01*
X131141196Y-106779900D01*
X131141196Y-108281900D01*
X129083157Y-108281900D01*
X129176291Y-108099117D01*
X129241953Y-107897030D01*
X129241953Y-107897027D01*
X129275196Y-107687146D01*
X129275196Y-107474653D01*
X129241953Y-107264772D01*
X129241953Y-107264769D01*
X129176291Y-107062682D01*
X129079820Y-106873349D01*
X129040466Y-106819182D01*
X129040465Y-106819182D01*
X128408158Y-107451490D01*
X128391121Y-107387907D01*
X128325295Y-107273893D01*
X128232203Y-107180801D01*
X128118189Y-107114975D01*
X128054605Y-107097937D01*
X128686912Y-106465628D01*
X128632746Y-106426275D01*
X128443413Y-106329804D01*
X128241325Y-106264142D01*
X128031442Y-106230900D01*
X127818950Y-106230900D01*
X127609068Y-106264142D01*
X127609065Y-106264142D01*
X127406978Y-106329804D01*
X127217635Y-106426280D01*
X127163478Y-106465627D01*
X127163478Y-106465628D01*
X127795787Y-107097937D01*
X127732203Y-107114975D01*
X127618189Y-107180801D01*
X127525097Y-107273893D01*
X127459271Y-107387907D01*
X127442233Y-107451491D01*
X126809924Y-106819182D01*
X126809923Y-106819182D01*
X126770576Y-106873339D01*
X126674100Y-107062682D01*
X126608438Y-107264769D01*
X126608438Y-107264772D01*
X126575196Y-107474653D01*
X126575196Y-107687146D01*
X126608438Y-107897027D01*
X126608438Y-107897030D01*
X126674100Y-108099117D01*
X126770571Y-108288450D01*
X126809924Y-108342616D01*
X127442233Y-107710308D01*
X127459271Y-107773893D01*
X127525097Y-107887907D01*
X127618189Y-107980999D01*
X127732203Y-108046825D01*
X127795786Y-108063862D01*
X127125566Y-108734081D01*
X127064243Y-108767566D01*
X127037894Y-108770400D01*
X127027330Y-108770400D01*
X127027319Y-108770401D01*
X126967712Y-108776808D01*
X126832867Y-108827102D01*
X126832860Y-108827106D01*
X126717651Y-108913352D01*
X126717648Y-108913355D01*
X126631402Y-109028564D01*
X126631398Y-109028571D01*
X126581104Y-109163417D01*
X126574697Y-109223016D01*
X126574697Y-109223023D01*
X126574696Y-109223035D01*
X125893196Y-109223035D01*
X125893196Y-105790404D01*
X140715296Y-105790404D01*
X140715296Y-105967795D01*
X140749899Y-106141758D01*
X140749902Y-106141767D01*
X140817779Y-106305640D01*
X140817786Y-106305653D01*
X140916331Y-106453134D01*
X140916334Y-106453138D01*
X141041757Y-106578561D01*
X141041761Y-106578564D01*
X141189242Y-106677109D01*
X141189255Y-106677116D01*
X141312159Y-106728023D01*
X141353130Y-106744994D01*
X141353132Y-106744994D01*
X141353137Y-106744996D01*
X141527100Y-106779599D01*
X141527103Y-106779600D01*
X141527105Y-106779600D01*
X141580344Y-106779600D01*
X141647383Y-106799285D01*
X141668025Y-106815919D01*
X141990412Y-107138306D01*
X141990441Y-107138337D01*
X142080660Y-107228556D01*
X142080663Y-107228558D01*
X142157586Y-107279956D01*
X142183106Y-107297009D01*
X142183108Y-107297010D01*
X142183111Y-107297012D01*
X142249792Y-107324631D01*
X142249794Y-107324633D01*
X142290036Y-107341301D01*
X142296944Y-107344163D01*
X142357367Y-107356181D01*
X142417789Y-107368200D01*
X142417790Y-107368200D01*
X147926835Y-107368200D01*
X147993874Y-107387885D01*
X148014517Y-107404520D01*
X148052157Y-107442161D01*
X148052161Y-107442164D01*
X148199642Y-107540709D01*
X148199655Y-107540716D01*
X148296670Y-107580900D01*
X148363530Y-107608594D01*
X148363532Y-107608594D01*
X148363537Y-107608596D01*
X148537500Y-107643199D01*
X148537503Y-107643200D01*
X148537505Y-107643200D01*
X148714889Y-107643200D01*
X148714890Y-107643199D01*
X148772878Y-107631664D01*
X148888854Y-107608596D01*
X148888857Y-107608594D01*
X148888862Y-107608594D01*
X149052743Y-107540713D01*
X149200231Y-107442164D01*
X149325660Y-107316735D01*
X149424209Y-107169247D01*
X149492090Y-107005366D01*
X149526696Y-106831391D01*
X149526696Y-106654009D01*
X149526696Y-106654006D01*
X149526695Y-106654004D01*
X149492092Y-106480041D01*
X149492089Y-106480032D01*
X149424212Y-106316159D01*
X149424205Y-106316146D01*
X149325660Y-106168665D01*
X149325657Y-106168661D01*
X149200234Y-106043238D01*
X149200230Y-106043235D01*
X149052749Y-105944690D01*
X149052736Y-105944683D01*
X148888863Y-105876806D01*
X148888854Y-105876803D01*
X148714890Y-105842200D01*
X148714887Y-105842200D01*
X148537505Y-105842200D01*
X148537502Y-105842200D01*
X148363537Y-105876803D01*
X148363528Y-105876806D01*
X148199655Y-105944683D01*
X148199642Y-105944690D01*
X148052161Y-106043235D01*
X148052157Y-106043238D01*
X148014517Y-106080880D01*
X147953195Y-106114366D01*
X147926835Y-106117200D01*
X142789848Y-106117200D01*
X142722809Y-106097515D01*
X142702167Y-106080881D01*
X142552615Y-105931329D01*
X142519130Y-105870006D01*
X142516296Y-105843648D01*
X142516296Y-105790406D01*
X142516295Y-105790404D01*
X142514603Y-105781900D01*
X151141196Y-105781900D01*
X152643196Y-105781900D01*
X153641196Y-105781900D01*
X155143196Y-105781900D01*
X155143196Y-104279900D01*
X153641196Y-104279900D01*
X153641196Y-105781900D01*
X152643196Y-105781900D01*
X152643196Y-104279900D01*
X151141196Y-104279900D01*
X151141196Y-105781900D01*
X142514603Y-105781900D01*
X142481692Y-105616441D01*
X142481689Y-105616432D01*
X142480303Y-105613087D01*
X142432628Y-105497986D01*
X142413812Y-105452559D01*
X142413805Y-105452546D01*
X142315260Y-105305065D01*
X142315257Y-105305061D01*
X142189834Y-105179638D01*
X142189830Y-105179635D01*
X142099384Y-105119200D01*
X143641196Y-105119200D01*
X145143196Y-105119200D01*
X145143196Y-104294541D01*
X146141196Y-104294541D01*
X146141196Y-105119200D01*
X147638724Y-105119200D01*
X147643196Y-105116211D01*
X147643196Y-104844200D01*
X148641196Y-104844200D01*
X148739387Y-104844200D01*
X148745470Y-104844349D01*
X148782242Y-104846155D01*
X148788312Y-104846603D01*
X148837084Y-104851406D01*
X148843125Y-104852151D01*
X148879556Y-104857555D01*
X148885553Y-104858596D01*
X149107604Y-104902765D01*
X149113545Y-104904099D01*
X149149280Y-104913051D01*
X149155148Y-104914675D01*
X149202041Y-104928902D01*
X149207816Y-104930810D01*
X149242468Y-104943209D01*
X149248145Y-104945399D01*
X149457291Y-105032029D01*
X149462852Y-105034494D01*
X149496134Y-105050234D01*
X149501573Y-105052971D01*
X149544795Y-105076073D01*
X149550090Y-105079073D01*
X149581684Y-105098009D01*
X149586828Y-105101266D01*
X149775065Y-105227043D01*
X149780041Y-105230547D01*
X149809613Y-105252479D01*
X149814411Y-105256224D01*
X149852293Y-105287313D01*
X149856900Y-105291287D01*
X149884187Y-105316018D01*
X149888596Y-105320216D01*
X150048680Y-105480300D01*
X150052878Y-105484709D01*
X150077609Y-105511996D01*
X150081583Y-105516603D01*
X150112672Y-105554485D01*
X150116417Y-105559283D01*
X150138349Y-105588855D01*
X150141853Y-105593831D01*
X150143196Y-105595840D01*
X150143196Y-104279900D01*
X148641196Y-104279900D01*
X148641196Y-104844200D01*
X147643196Y-104844200D01*
X147643196Y-104279900D01*
X147454731Y-104279900D01*
X147300531Y-104358469D01*
X147282554Y-104365915D01*
X147102915Y-104424283D01*
X147083995Y-104428825D01*
X146897436Y-104458373D01*
X146878038Y-104459900D01*
X146689154Y-104459900D01*
X146669756Y-104458373D01*
X146483197Y-104428825D01*
X146464277Y-104424283D01*
X146284638Y-104365915D01*
X146266661Y-104358469D01*
X146141196Y-104294541D01*
X145143196Y-104294541D01*
X145143196Y-104279900D01*
X143641196Y-104279900D01*
X143641196Y-105119200D01*
X142099384Y-105119200D01*
X142042349Y-105081090D01*
X142042336Y-105081083D01*
X141878463Y-105013206D01*
X141878454Y-105013203D01*
X141704490Y-104978600D01*
X141704487Y-104978600D01*
X141527105Y-104978600D01*
X141527102Y-104978600D01*
X141353137Y-105013203D01*
X141353128Y-105013206D01*
X141189255Y-105081083D01*
X141189242Y-105081090D01*
X141041761Y-105179635D01*
X141041757Y-105179638D01*
X140916334Y-105305061D01*
X140916331Y-105305065D01*
X140817786Y-105452546D01*
X140817779Y-105452559D01*
X140749902Y-105616432D01*
X140749899Y-105616441D01*
X140715296Y-105790404D01*
X125893196Y-105790404D01*
X125893196Y-105781900D01*
X133641196Y-105781900D01*
X135143196Y-105781900D01*
X136141196Y-105781900D01*
X137208212Y-105781900D01*
X137152893Y-105747779D01*
X137146863Y-105743813D01*
X137111103Y-105718772D01*
X137105319Y-105714466D01*
X137059752Y-105678436D01*
X137054225Y-105673798D01*
X137021627Y-105644787D01*
X137016383Y-105639839D01*
X136851257Y-105474713D01*
X136846309Y-105469469D01*
X136817298Y-105436871D01*
X136812660Y-105431344D01*
X136776630Y-105385777D01*
X136772324Y-105379993D01*
X136747283Y-105344233D01*
X136743317Y-105338203D01*
X136620715Y-105139432D01*
X136617108Y-105133185D01*
X136596390Y-105094760D01*
X136593152Y-105088313D01*
X136568605Y-105035668D01*
X136565749Y-105029046D01*
X136549640Y-104988496D01*
X136547174Y-104981720D01*
X136474287Y-104761763D01*
X136472335Y-104755286D01*
X136461597Y-104715784D01*
X136460001Y-104709209D01*
X136448603Y-104655955D01*
X136447369Y-104649311D01*
X136441000Y-104608906D01*
X136440130Y-104602199D01*
X136425572Y-104459687D01*
X136425291Y-104456539D01*
X136423835Y-104437495D01*
X136423634Y-104434349D01*
X136422342Y-104408980D01*
X136422222Y-104405826D01*
X136421737Y-104386756D01*
X136421697Y-104383603D01*
X136421697Y-104279900D01*
X136141196Y-104279900D01*
X136141196Y-105781900D01*
X135143196Y-105781900D01*
X135143196Y-104279900D01*
X133641196Y-104279900D01*
X133641196Y-105781900D01*
X125893196Y-105781900D01*
X125893196Y-102873035D01*
X126574696Y-102873035D01*
X126574696Y-104668770D01*
X126574697Y-104668776D01*
X126581104Y-104728383D01*
X126631398Y-104863228D01*
X126631402Y-104863235D01*
X126717648Y-104978444D01*
X126717651Y-104978447D01*
X126832860Y-105064693D01*
X126832867Y-105064697D01*
X126967713Y-105114991D01*
X126967712Y-105114991D01*
X126974640Y-105115735D01*
X127027323Y-105121400D01*
X128823068Y-105121399D01*
X128882679Y-105114991D01*
X129017527Y-105064696D01*
X129132742Y-104978446D01*
X129218992Y-104863231D01*
X129269287Y-104728383D01*
X129275696Y-104668773D01*
X129275695Y-103668548D01*
X129799696Y-103668548D01*
X129799696Y-103873251D01*
X129831718Y-104075434D01*
X129894977Y-104270123D01*
X129946331Y-104370909D01*
X129980258Y-104437495D01*
X129987911Y-104452513D01*
X130108224Y-104618113D01*
X130252982Y-104762871D01*
X130391124Y-104863235D01*
X130418586Y-104883187D01*
X130534803Y-104942403D01*
X130600972Y-104976118D01*
X130600974Y-104976118D01*
X130600977Y-104976120D01*
X130692052Y-105005712D01*
X130795661Y-105039377D01*
X130864209Y-105050234D01*
X130997844Y-105071400D01*
X130997845Y-105071400D01*
X131202547Y-105071400D01*
X131202548Y-105071400D01*
X131404730Y-105039377D01*
X131599415Y-104976120D01*
X131781806Y-104883187D01*
X131910678Y-104789557D01*
X131947409Y-104762871D01*
X131947411Y-104762868D01*
X131947415Y-104762866D01*
X132092162Y-104618119D01*
X132092164Y-104618115D01*
X132092167Y-104618113D01*
X132197088Y-104473699D01*
X132212483Y-104452510D01*
X132305416Y-104270119D01*
X132368673Y-104075434D01*
X132400696Y-103873252D01*
X132400696Y-103668548D01*
X132368673Y-103466366D01*
X132362874Y-103448520D01*
X132339323Y-103376037D01*
X132308736Y-103281900D01*
X133641196Y-103281900D01*
X135143196Y-103281900D01*
X136141196Y-103281900D01*
X136421696Y-103281900D01*
X136421696Y-103170883D01*
X137419696Y-103170883D01*
X137419696Y-104370901D01*
X137419697Y-104370918D01*
X137430196Y-104473696D01*
X137430197Y-104473699D01*
X137471683Y-104598893D01*
X137485382Y-104640234D01*
X137577484Y-104789556D01*
X137701540Y-104913612D01*
X137850862Y-105005714D01*
X138017399Y-105060899D01*
X138120187Y-105071400D01*
X139320204Y-105071399D01*
X139422993Y-105060899D01*
X139589530Y-105005714D01*
X139738852Y-104913612D01*
X139862908Y-104789556D01*
X139955010Y-104640234D01*
X140010195Y-104473697D01*
X140020696Y-104370909D01*
X140020695Y-103281900D01*
X141141196Y-103281900D01*
X142643196Y-103281900D01*
X143641196Y-103281900D01*
X145143196Y-103281900D01*
X148641196Y-103281900D01*
X150143196Y-103281900D01*
X151141196Y-103281900D01*
X152643196Y-103281900D01*
X153641196Y-103281900D01*
X155143196Y-103281900D01*
X155143196Y-102270897D01*
X156141196Y-102270897D01*
X156160901Y-102258233D01*
X156168515Y-102253715D01*
X156231105Y-102219538D01*
X156239019Y-102215577D01*
X156287755Y-102193319D01*
X156295935Y-102189930D01*
X156493292Y-102116321D01*
X156500632Y-102113842D01*
X156545501Y-102100232D01*
X156552984Y-102098215D01*
X156613695Y-102083872D01*
X156621280Y-102082328D01*
X156667458Y-102074422D01*
X156675127Y-102073355D01*
X156778979Y-102062189D01*
X156782291Y-102061877D01*
X156802340Y-102060264D01*
X156805654Y-102060042D01*
X156832341Y-102058613D01*
X156835657Y-102058480D01*
X156855705Y-102057944D01*
X156859019Y-102057900D01*
X157643196Y-102057900D01*
X157643196Y-101779900D01*
X156141196Y-101779900D01*
X156141196Y-102270897D01*
X155143196Y-102270897D01*
X155143196Y-101779900D01*
X153641196Y-101779900D01*
X153641196Y-103281900D01*
X152643196Y-103281900D01*
X152643196Y-101779900D01*
X151141196Y-101779900D01*
X151141196Y-103281900D01*
X150143196Y-103281900D01*
X150143196Y-101779900D01*
X148641196Y-101779900D01*
X148641196Y-103281900D01*
X145143196Y-103281900D01*
X145143196Y-101779900D01*
X143641196Y-101779900D01*
X143641196Y-103281900D01*
X142643196Y-103281900D01*
X142643196Y-101779900D01*
X141141196Y-101779900D01*
X141141196Y-103281900D01*
X140020695Y-103281900D01*
X140020695Y-103170892D01*
X140011946Y-103085249D01*
X140010195Y-103068103D01*
X140010194Y-103068100D01*
X140006151Y-103055900D01*
X139955010Y-102901566D01*
X139862908Y-102752244D01*
X139738852Y-102628188D01*
X139633739Y-102563354D01*
X139589532Y-102536087D01*
X139589527Y-102536085D01*
X139588058Y-102535598D01*
X139422993Y-102480901D01*
X139422991Y-102480900D01*
X139320206Y-102470400D01*
X138120194Y-102470400D01*
X138120177Y-102470401D01*
X138017399Y-102480900D01*
X138017396Y-102480901D01*
X137850864Y-102536085D01*
X137850859Y-102536087D01*
X137701538Y-102628189D01*
X137577485Y-102752242D01*
X137485383Y-102901563D01*
X137485382Y-102901566D01*
X137430197Y-103068103D01*
X137430197Y-103068104D01*
X137430196Y-103068104D01*
X137419696Y-103170883D01*
X136421696Y-103170883D01*
X136421696Y-103158196D01*
X136421736Y-103155043D01*
X136422221Y-103135973D01*
X136422341Y-103132820D01*
X136423633Y-103107449D01*
X136423834Y-103104298D01*
X136425291Y-103085249D01*
X136425572Y-103082104D01*
X136440132Y-102939581D01*
X136441003Y-102932872D01*
X136447377Y-102892443D01*
X136448612Y-102885792D01*
X136460014Y-102832541D01*
X136461609Y-102825974D01*
X136472340Y-102786500D01*
X136474291Y-102780025D01*
X136547173Y-102560082D01*
X136549640Y-102553304D01*
X136565750Y-102512753D01*
X136568605Y-102506134D01*
X136593152Y-102453488D01*
X136596390Y-102447040D01*
X136617108Y-102408615D01*
X136620715Y-102402368D01*
X136743317Y-102203597D01*
X136747283Y-102197567D01*
X136772324Y-102161807D01*
X136776630Y-102156023D01*
X136812660Y-102110456D01*
X136817298Y-102104929D01*
X136846309Y-102072331D01*
X136851257Y-102067087D01*
X137016383Y-101901961D01*
X137021627Y-101897013D01*
X137054225Y-101868002D01*
X137059752Y-101863364D01*
X137105319Y-101827334D01*
X137111103Y-101823028D01*
X137146863Y-101797987D01*
X137152893Y-101794021D01*
X137175787Y-101779900D01*
X136141196Y-101779900D01*
X136141196Y-103281900D01*
X135143196Y-103281900D01*
X135143196Y-101779900D01*
X133641196Y-101779900D01*
X133641196Y-103281900D01*
X132308736Y-103281900D01*
X132305416Y-103271681D01*
X132305414Y-103271678D01*
X132305414Y-103271676D01*
X132254061Y-103170891D01*
X132212483Y-103089290D01*
X132188224Y-103055900D01*
X132092167Y-102923686D01*
X131947409Y-102778928D01*
X131781809Y-102658615D01*
X131781808Y-102658614D01*
X131781806Y-102658613D01*
X131722094Y-102628188D01*
X131599419Y-102565681D01*
X131404730Y-102502422D01*
X131230191Y-102474778D01*
X131202548Y-102470400D01*
X130997844Y-102470400D01*
X130973525Y-102474251D01*
X130795661Y-102502422D01*
X130600972Y-102565681D01*
X130418582Y-102658615D01*
X130252982Y-102778928D01*
X130108224Y-102923686D01*
X129987911Y-103089286D01*
X129894977Y-103271676D01*
X129831718Y-103466365D01*
X129799696Y-103668548D01*
X129275695Y-103668548D01*
X129275695Y-102873028D01*
X129269287Y-102813417D01*
X129256423Y-102778928D01*
X129218993Y-102678571D01*
X129218989Y-102678564D01*
X129132743Y-102563355D01*
X129132740Y-102563352D01*
X129017531Y-102477106D01*
X129017524Y-102477102D01*
X128882678Y-102426808D01*
X128882679Y-102426808D01*
X128823079Y-102420401D01*
X128823077Y-102420400D01*
X128823069Y-102420400D01*
X128823061Y-102420400D01*
X128812505Y-102420400D01*
X128745466Y-102400715D01*
X128724824Y-102384081D01*
X128054604Y-101713862D01*
X128118189Y-101696825D01*
X128232203Y-101630999D01*
X128325295Y-101537907D01*
X128391121Y-101423893D01*
X128408158Y-101360309D01*
X129040466Y-101992617D01*
X129040466Y-101992616D01*
X129079818Y-101938454D01*
X129176291Y-101749117D01*
X129241953Y-101547030D01*
X129241953Y-101547027D01*
X129275196Y-101337146D01*
X129275196Y-101124653D01*
X129241953Y-100914772D01*
X129241953Y-100914769D01*
X129198781Y-100781900D01*
X131141196Y-100781900D01*
X132643196Y-100781900D01*
X133641196Y-100781900D01*
X135143196Y-100781900D01*
X136141196Y-100781900D01*
X137643196Y-100781900D01*
X138641196Y-100781900D01*
X140143196Y-100781900D01*
X141141196Y-100781900D01*
X142643196Y-100781900D01*
X143641196Y-100781900D01*
X145143196Y-100781900D01*
X146141196Y-100781900D01*
X147643196Y-100781900D01*
X148641196Y-100781900D01*
X150143196Y-100781900D01*
X151141196Y-100781900D01*
X152643196Y-100781900D01*
X153641196Y-100781900D01*
X155143196Y-100781900D01*
X156141196Y-100781900D01*
X157643196Y-100781900D01*
X157643196Y-99279900D01*
X156141196Y-99279900D01*
X156141196Y-100781900D01*
X155143196Y-100781900D01*
X155143196Y-99279900D01*
X153641196Y-99279900D01*
X153641196Y-100781900D01*
X152643196Y-100781900D01*
X152643196Y-99279900D01*
X151141196Y-99279900D01*
X151141196Y-100781900D01*
X150143196Y-100781900D01*
X150143196Y-99279900D01*
X148641196Y-99279900D01*
X148641196Y-100781900D01*
X147643196Y-100781900D01*
X147643196Y-99279900D01*
X146141196Y-99279900D01*
X146141196Y-100781900D01*
X145143196Y-100781900D01*
X145143196Y-99279900D01*
X143641196Y-99279900D01*
X143641196Y-100781900D01*
X142643196Y-100781900D01*
X142643196Y-99279900D01*
X141141196Y-99279900D01*
X141141196Y-100781900D01*
X140143196Y-100781900D01*
X140143196Y-99279900D01*
X138641196Y-99279900D01*
X138641196Y-100781900D01*
X137643196Y-100781900D01*
X137643196Y-99279900D01*
X136141196Y-99279900D01*
X136141196Y-100781900D01*
X135143196Y-100781900D01*
X135143196Y-99279900D01*
X133641196Y-99279900D01*
X133641196Y-100781900D01*
X132643196Y-100781900D01*
X132643196Y-99279900D01*
X131141196Y-99279900D01*
X131141196Y-100781900D01*
X129198781Y-100781900D01*
X129176291Y-100712682D01*
X129079820Y-100523349D01*
X129040466Y-100469182D01*
X129040465Y-100469182D01*
X128408158Y-101101490D01*
X128391121Y-101037907D01*
X128325295Y-100923893D01*
X128232203Y-100830801D01*
X128118189Y-100764975D01*
X128054605Y-100747937D01*
X128686912Y-100115628D01*
X128632746Y-100076275D01*
X128443413Y-99979804D01*
X128241325Y-99914142D01*
X128031442Y-99880900D01*
X127818950Y-99880900D01*
X127609068Y-99914142D01*
X127609065Y-99914142D01*
X127406978Y-99979804D01*
X127217635Y-100076280D01*
X127163478Y-100115627D01*
X127163478Y-100115628D01*
X127795787Y-100747937D01*
X127732203Y-100764975D01*
X127618189Y-100830801D01*
X127525097Y-100923893D01*
X127459271Y-101037907D01*
X127442233Y-101101491D01*
X126809924Y-100469182D01*
X126809923Y-100469182D01*
X126770576Y-100523339D01*
X126674100Y-100712682D01*
X126608438Y-100914769D01*
X126608438Y-100914772D01*
X126575196Y-101124653D01*
X126575196Y-101337146D01*
X126608438Y-101547027D01*
X126608438Y-101547030D01*
X126674100Y-101749117D01*
X126770571Y-101938450D01*
X126809924Y-101992616D01*
X127442233Y-101360308D01*
X127459271Y-101423893D01*
X127525097Y-101537907D01*
X127618189Y-101630999D01*
X127732203Y-101696825D01*
X127795786Y-101713862D01*
X127125566Y-102384081D01*
X127064243Y-102417566D01*
X127037894Y-102420400D01*
X127027330Y-102420400D01*
X127027319Y-102420401D01*
X126967712Y-102426808D01*
X126832867Y-102477102D01*
X126832860Y-102477106D01*
X126717651Y-102563352D01*
X126717648Y-102563355D01*
X126631402Y-102678564D01*
X126631398Y-102678571D01*
X126581104Y-102813417D01*
X126574697Y-102873016D01*
X126574697Y-102873023D01*
X126574696Y-102873035D01*
X125893196Y-102873035D01*
X125893196Y-99279900D01*
X129234531Y-99279900D01*
X129452893Y-99438547D01*
X129488197Y-99478276D01*
X129556268Y-99599824D01*
X129677818Y-99667897D01*
X129717547Y-99703201D01*
X129898737Y-99952591D01*
X129901518Y-99956582D01*
X129917874Y-99981059D01*
X129920499Y-99985160D01*
X129940981Y-100018581D01*
X129943444Y-100022783D01*
X129957844Y-100048495D01*
X129960140Y-100052790D01*
X130074410Y-100277054D01*
X130076536Y-100281437D01*
X130088865Y-100308181D01*
X130090815Y-100312639D01*
X130105817Y-100348855D01*
X130107592Y-100353391D01*
X130117791Y-100381036D01*
X130119387Y-100385637D01*
X130143196Y-100458914D01*
X130143196Y-99279900D01*
X129234531Y-99279900D01*
X125893196Y-99279900D01*
X125893196Y-99140072D01*
X125912881Y-99073033D01*
X125965685Y-99027278D01*
X126007465Y-99016454D01*
X126010634Y-99016204D01*
X126010651Y-99016204D01*
X126242668Y-98979456D01*
X126466080Y-98906865D01*
X126675385Y-98800219D01*
X126865431Y-98662143D01*
X127031537Y-98496037D01*
X127169613Y-98305991D01*
X127181888Y-98281900D01*
X128641196Y-98281900D01*
X130143196Y-98281900D01*
X131141196Y-98281900D01*
X132643196Y-98281900D01*
X133641196Y-98281900D01*
X135143196Y-98281900D01*
X136141196Y-98281900D01*
X137643196Y-98281900D01*
X138641196Y-98281900D01*
X140143196Y-98281900D01*
X141141196Y-98281900D01*
X142643196Y-98281900D01*
X143641196Y-98281900D01*
X145143196Y-98281900D01*
X146141196Y-98281900D01*
X147643196Y-98281900D01*
X148641196Y-98281900D01*
X150143196Y-98281900D01*
X151141196Y-98281900D01*
X152643196Y-98281900D01*
X153641196Y-98281900D01*
X155143196Y-98281900D01*
X156141196Y-98281900D01*
X157422123Y-98281900D01*
X157391327Y-98187119D01*
X157389913Y-98182457D01*
X157381910Y-98154078D01*
X157380679Y-98149359D01*
X157371531Y-98111241D01*
X157370489Y-98106494D01*
X157364748Y-98077630D01*
X157363893Y-98072838D01*
X157321017Y-97802127D01*
X157320350Y-97797304D01*
X157316890Y-97768071D01*
X157316413Y-97763233D01*
X157313335Y-97724154D01*
X157313048Y-97719289D01*
X157311890Y-97689837D01*
X157311794Y-97684965D01*
X157311794Y-97655900D01*
X156141196Y-97655900D01*
X156141196Y-98281900D01*
X155143196Y-98281900D01*
X155143196Y-97655900D01*
X153641196Y-97655900D01*
X153641196Y-98281900D01*
X152643196Y-98281900D01*
X152643196Y-97655900D01*
X151141196Y-97655900D01*
X151141196Y-98281900D01*
X150143196Y-98281900D01*
X150143196Y-97655900D01*
X148641196Y-97655900D01*
X148641196Y-98281900D01*
X147643196Y-98281900D01*
X147643196Y-97655900D01*
X146141196Y-97655900D01*
X146141196Y-98281900D01*
X145143196Y-98281900D01*
X145143196Y-97655900D01*
X143641196Y-97655900D01*
X143641196Y-98281900D01*
X142643196Y-98281900D01*
X142643196Y-97655900D01*
X141141196Y-97655900D01*
X141141196Y-98281900D01*
X140143196Y-98281900D01*
X140143196Y-97655900D01*
X138641196Y-97655900D01*
X138641196Y-98281900D01*
X137643196Y-98281900D01*
X137643196Y-97655900D01*
X136141196Y-97655900D01*
X136141196Y-98281900D01*
X135143196Y-98281900D01*
X135143196Y-97655900D01*
X133641196Y-97655900D01*
X133641196Y-98281900D01*
X132643196Y-98281900D01*
X132643196Y-97655900D01*
X131141196Y-97655900D01*
X131141196Y-98281900D01*
X130143196Y-98281900D01*
X130143196Y-97655900D01*
X128641196Y-97655900D01*
X128641196Y-98281900D01*
X127181888Y-98281900D01*
X127276259Y-98096686D01*
X127348850Y-97873274D01*
X127385598Y-97641257D01*
X127385598Y-97406347D01*
X127348850Y-97174330D01*
X127276259Y-96950918D01*
X127276257Y-96950915D01*
X127276257Y-96950913D01*
X127169611Y-96741609D01*
X127160293Y-96728784D01*
X127136814Y-96662977D01*
X127152640Y-96594923D01*
X127202747Y-96546229D01*
X127260612Y-96531900D01*
X158452288Y-96531900D01*
X158519327Y-96551585D01*
G37*
%TD.AperFunction*%
%TD*%
M02*
